# xmcd CD database file
#
# Track frame offsets:
#	150
#	29842
#	48905
#	75372
#	95627
#	114952
#	145785
#	189710
#	210295
#	252570
#
# Disc length: 3546 seconds
#
# Revision: 1
# Processed by: cddbd v1.5.2PL0 Copyright (c) Steve Scherf et al.
# Submitted via: CDex 1.70beta2
#
DISCID=840dd80a
DTITLE=浅川マキ - DARKNESS Ⅱ[CD2　ゼロアワー～BOBBY　WATSONとその友達の中で歌う)
DYEAR=1900
DGENRE=Jazz
TTITLE0=Zero Hour
TTITLE1=放し飼い
TTITLE2=Music Love
TTITLE3=あんたが古いブルースを歌えと言うから
TTITLE4=ワルツに抱かれて
TTITLE5=ちょうどいい時間
TTITLE6=YS・ムーンライト
TTITLE7=夜のカーニバル
TTITLE8=あたしたち
TTITLE9=トレモロ
EXTD=
EXTT0=
EXTT1=
EXTT2=
EXTT3=
EXTT4=
EXTT5=
EXTT6=
EXTT7=
EXTT8=
EXTT9=
PLAYORDER=
